<svg width="48" height="48" viewBox="0 0 48 48" fill="none" xmlns="http://www.w3.org/2000/svg">
<g clip-path="url(#clip0_1119_26)">
<rect width="48" height="48" rx="7" fill="#1E1E1E"/>
<path d="M20.8938 43C17.7109 43 15.4292 42.2656 14.0487 40.7969C12.6681 39.2906 11.9779 37.3135 11.9779 34.8656C11.9779 34.2254 12.0354 33.4534 12.1504 32.5496C12.2655 31.6458 12.4189 30.5537 12.6106 29.2733C12.9174 27.428 13.1475 25.7898 13.3009 24.3588C13.4543 22.8901 13.531 21.2896 13.531 19.5573C13.531 17.5613 13.4735 15.942 13.3584 14.6992C12.7065 15.0758 12.2271 15.2641 11.9204 15.2641C11.3068 15.2641 11 14.5863 11 13.2305C11 12.1761 11.2301 11.2911 11.6903 10.5756C12.1888 9.82239 12.9941 9.1257 14.1062 8.48549C15.2183 7.80763 16.618 7.22392 18.3053 6.73435C20.031 6.24478 21.8717 6 23.8274 6C27.0103 6 29.4263 6.71552 31.0752 8.14656C32.7242 9.57761 33.5487 11.4606 33.5487 13.7954C33.5487 15.3018 33.2227 16.6952 32.5708 17.9756C31.9189 19.256 30.9985 20.3858 29.8097 21.3649C34.6032 22.1181 37 24.8295 37 29.4992C37 32.0224 36.2714 34.3196 34.8142 36.3908C33.3569 38.4621 31.382 40.0814 28.8894 41.2489C26.4735 42.4163 23.8083 43 20.8938 43ZM23.1947 36.7298C24.9204 36.7298 26.4735 36.5038 27.854 36.0519C29.2729 35.5623 30.4041 34.8656 31.2478 33.9618C32.0914 33.058 32.5133 32.0036 32.5133 30.7985C32.5133 29.2545 31.9572 28.1623 30.8451 27.5221C29.733 26.8819 28.4484 26.5618 26.9911 26.5618C26.3776 26.5618 25.6106 26.6183 24.6903 26.7313C24.3068 26.8066 23.8658 26.8443 23.3673 26.8443C22.5236 26.8443 21.8142 26.5053 21.2389 25.8275C20.7021 25.1496 20.4336 24.3023 20.4336 23.2855C20.4336 22.57 20.7596 22.1181 21.4115 21.9298C26.09 20.7247 28.4292 18.6346 28.4292 15.6595C28.4292 13.287 26.7611 12.1008 23.4248 12.1008C22.1976 12.1008 20.6829 12.3079 18.8805 12.7221C18.8805 14.5674 18.7847 16.5069 18.5929 18.5405C18.4012 20.5364 18.1136 22.6265 17.7301 24.8107C17.5 26.317 17.3083 27.5975 17.1549 28.6519C17.0398 29.6687 16.9823 30.4972 16.9823 31.1374C16.9823 33.171 17.5 34.6209 18.5354 35.487C19.5708 36.3155 21.1239 36.7298 23.1947 36.7298Z" fill="white"/>
</g>
<defs>
<clipPath id="clip0_1119_26">
<rect width="48" height="48" fill="white"/>
</clipPath>
</defs>
</svg>
